<?xml version="1.0" encoding="utf-8"?>
<!-- Generator: Adobe Illustrator 16.0.0, SVG Export Plug-In . SVG Version: 6.00 Build 0)  -->
<!DOCTYPE svg PUBLIC "-//W3C//DTD SVG 1.1//EN" "http://www.w3.org/Graphics/SVG/1.1/DTD/svg11.dtd">
<svg version="1.1" id="Layer_1" xmlns="http://www.w3.org/2000/svg" xmlns:xlink="http://www.w3.org/1999/xlink" x="0px" y="0px"
	 width="300px" height="110px" viewBox="0 0 300 110" enable-background="new 0 0 300 110" xml:space="preserve">
<path fill="#FFFFFF" d="M18.5,49.571c0,3.819,0.963,6.83,2.89,9.025c1.927,2.2,4.732,3.3,8.413,3.3c2.512,0,4.542-0.362,6.09-1.085
	c1.547-0.725,3.111-1.866,4.688-3.43l5.697,5.296c-1.17,1.157-2.322,2.153-3.462,2.991c-1.139,0.839-2.366,1.548-3.68,2.127
	c-1.315,0.578-2.748,1.011-4.294,1.301c-1.551,0.29-3.288,0.433-5.212,0.433c-2.805,0-5.421-0.39-7.848-1.172
	c-2.426-0.782-4.538-2.049-6.337-3.814c-1.798-1.767-3.229-4.093-4.293-6.988c-1.062-2.89-1.593-6.42-1.593-10.585
	c0-7.173,1.723-12.712,5.173-16.615c3.443-3.906,8.029-5.858,13.755-5.858c2.98,0,5.638,0.519,7.975,1.563
	c2.336,1.039,4.307,2.485,5.915,4.336c1.606,1.852,2.834,4.079,3.681,6.682c0.845,2.602,1.27,5.467,1.27,8.588v3.906H18.5z
	 M38.174,40.156c-0.147-0.836-0.457-1.747-0.921-2.729c-0.703-1.679-1.812-3.024-3.33-4.039c-1.52-1.011-3.331-1.518-5.435-1.518
	c-2.102,0-3.93,0.507-5.477,1.518c-1.547,1.015-2.673,2.36-3.374,4.039c-0.468,0.982-0.76,1.893-0.878,2.729
	c-0.116,0.841-0.202,1.925-0.26,3.255h19.98C38.421,42.081,38.318,40.997,38.174,40.156"/>
<path fill="#FFFFFF" d="M72.305,69.009c-2.104,0-3.915-0.348-5.435-1.041c-1.519-0.696-2.776-1.605-3.767-2.731
	c-0.994-1.129-1.739-2.43-2.236-3.906c-0.497-1.474-0.746-2.995-0.746-4.558V32.565h-5.08v-6.769h5.08V12.434h8.942v13.363h8.585
	v6.769h-8.585v23.775c0,1.623,0.392,2.876,1.18,3.771c0.789,0.9,2.029,1.347,3.725,1.347h3.68v7.55H72.305z"/>
<path fill="#FFFFFF" d="M115.944,69.009V42.022c0-3.355-0.863-5.799-2.584-7.329c-1.725-1.535-3.843-2.302-6.354-2.302
	c-2.514,0-4.646,0.78-6.397,2.344c-1.752,1.56-2.629,3.991-2.629,7.287v26.987h-8.938V7.227h8.938v22.215
	c1.516-1.679,3.256-2.921,5.214-3.733c1.957-0.808,4.043-1.213,6.266-1.213c2.454,0,4.644,0.392,6.574,1.17
	c1.925,0.782,3.546,1.879,4.863,3.297c1.313,1.419,2.307,3.124,2.977,5.122c0.673,1.995,1.009,4.176,1.009,6.549v28.375H115.944z"/>
<path fill="#FFFFFF" d="M138.377,6.97h9.462v9.369h-9.462V6.97z M138.64,25.015h8.938v43.994h-8.938V25.015z"/>
<path fill="#FFFFFF" d="M188.85,69.009V42.196c0-3.413-0.859-5.901-2.583-7.461c-1.723-1.564-3.843-2.344-6.355-2.344
	c-2.509,0-4.671,0.797-6.483,2.388c-1.811,1.591-2.718,4.062-2.718,7.417v26.813h-8.937V25.015h8.762v4.427
	c1.522-1.679,3.318-2.921,5.392-3.733c2.071-0.808,4.221-1.213,6.44-1.213c2.278,0,4.34,0.346,6.176,1.043
	c1.842,0.694,3.433,1.678,4.778,2.95c1.694,1.678,2.863,3.542,3.504,5.597c0.643,2.054,0.962,4.324,0.962,6.81v28.114H188.85z"/>
<path fill="#FFFFFF" d="M245.458,56.818c-0.702,2.806-2.103,5.308-4.204,7.503c-1.462,1.507-3.286,2.749-5.476,3.731
	c-2.194,0.982-4.811,1.477-7.847,1.477c-3.037,0-5.636-0.494-7.797-1.477c-2.162-0.982-3.976-2.225-5.434-3.731
	c-2.102-2.195-3.505-4.697-4.205-7.503c-0.701-2.807-1.055-6.089-1.055-9.847c0-3.705,0.354-6.958,1.055-9.765
	c0.7-2.803,2.104-5.305,4.205-7.503c1.458-1.504,3.271-2.749,5.434-3.733c2.161-0.982,4.76-1.474,7.797-1.474
	c3.036,0,5.652,0.492,7.847,1.474c2.189,0.984,4.014,2.229,5.476,3.733c2.102,2.198,3.502,4.7,4.204,7.503
	c0.7,2.807,1.054,6.061,1.054,9.765C246.512,50.729,246.158,54.011,245.458,56.818 M237.047,40.115
	c-0.354-2.142-1.198-3.875-2.542-5.207c-1.695-1.676-3.885-2.517-6.573-2.517c-2.625,0-4.788,0.841-6.481,2.517
	c-1.348,1.331-2.19,3.064-2.544,5.207c-0.35,2.141-0.526,4.425-0.526,6.856c0,2.427,0.177,4.715,0.526,6.852
	c0.354,2.14,1.196,3.877,2.544,5.206c1.75,1.736,3.909,2.604,6.481,2.604c2.63,0,4.82-0.868,6.573-2.604
	c1.344-1.329,2.188-3.066,2.542-5.206c0.35-2.137,0.525-4.425,0.525-6.852C237.572,44.54,237.396,42.255,237.047,40.115"/>
<path fill="#FFFFFF" d="M290.063,61.634c-0.935,1.736-2.222,3.197-3.854,4.383c-1.638,1.186-3.596,2.067-5.873,2.643
	c-2.276,0.58-4.731,0.868-7.36,0.868c-3.623,0-6.981-0.416-10.08-1.257c-3.095-0.838-5.958-2.528-8.587-5.075l5.872-5.812
	c1.81,1.853,3.839,3.077,6.093,3.687c2.245,0.605,4.48,0.909,6.702,0.909c2.745,0,5.054-0.49,6.92-1.476
	c1.871-0.979,2.806-2.514,2.806-4.596c0-1.506-0.453-2.705-1.358-3.603c-0.904-0.895-2.438-1.431-4.599-1.603l-7.1-0.61
	c-4.205-0.346-7.447-1.486-9.726-3.426c-2.279-1.937-3.418-4.844-3.418-8.72c0-2.142,0.437-4.048,1.314-5.726
	c0.875-1.676,2.073-3.083,3.594-4.208c1.515-1.131,3.284-2,5.299-2.605c2.018-0.607,4.191-0.911,6.527-0.911
	c3.329,0,6.401,0.376,9.203,1.128c2.806,0.751,5.229,2.025,7.274,3.816l-5.612,5.642c-1.399-1.157-3.05-1.979-4.945-2.475
	c-1.901-0.488-3.903-0.736-6.005-0.736c-2.689,0-4.705,0.521-6.048,1.564c-1.342,1.038-2.016,2.398-2.016,4.076
	c0,1.331,0.426,2.445,1.274,3.339c0.842,0.901,2.463,1.464,4.859,1.697l7.012,0.605c4.206,0.346,7.463,1.518,9.771,3.514
	c2.307,1.996,3.461,4.959,3.461,8.893C291.465,57.873,290.996,59.897,290.063,61.634"/>
<path fill="#FFFFFF" d="M16.684,98.388c-0.54,0.233-1.17,0.352-1.9,0.352c-0.593,0-1.167-0.098-1.723-0.29
	c-0.556-0.194-1.051-0.502-1.486-0.931c-0.434-0.426-0.787-0.98-1.053-1.66c-0.268-0.685-0.404-1.51-0.404-2.49
	c0-0.976,0.136-1.807,0.404-2.486c0.266-0.679,0.619-1.229,1.053-1.652c0.435-0.419,0.93-0.726,1.486-0.915
	c0.556-0.194,1.13-0.29,1.723-0.29c0.729,0,1.36,0.113,1.9,0.34c0.536,0.226,1.052,0.604,1.548,1.123l-1.447,1.406
	c-0.329-0.359-0.645-0.614-0.938-0.764c-0.295-0.15-0.649-0.227-1.063-0.227c-0.826,0-1.472,0.31-1.94,0.926
	c-0.234,0.29-0.395,0.633-0.485,1.022c-0.09,0.394-0.134,0.899-0.134,1.517c0,0.62,0.044,1.131,0.134,1.528
	c0.09,0.399,0.251,0.746,0.485,1.031c0.469,0.62,1.115,0.933,1.94,0.933c0.414,0,0.769-0.076,1.063-0.228
	c0.293-0.154,0.609-0.408,0.938-0.763l1.447,1.381C17.736,97.772,17.22,98.154,16.684,98.388"/>
<path fill="#FFFFFF" d="M26.427,90.604c-0.234-0.232-0.465-0.409-0.691-0.525c-0.229-0.116-0.519-0.175-0.878-0.175
	c-0.577,0-1.07,0.208-1.476,0.627c-0.405,0.423-0.609,0.997-0.609,1.728v6.356h-2.105V88.149h2.064v1.133
	c0.275-0.372,0.661-0.673,1.155-0.907c0.495-0.232,1.04-0.351,1.631-0.351c0.509,0,0.963,0.076,1.364,0.225
	c0.398,0.153,0.777,0.409,1.135,0.764L26.427,90.604z"/>
<path fill="#FFFFFF" d="M30.64,93.988c0,0.908,0.226,1.628,0.682,2.149c0.451,0.522,1.114,0.786,1.981,0.786
	c0.59,0,1.068-0.087,1.433-0.26c0.363-0.173,0.731-0.447,1.104-0.816l1.343,1.259c-0.278,0.276-0.548,0.512-0.815,0.712
	c-0.27,0.198-0.557,0.37-0.867,0.506c-0.31,0.14-0.648,0.238-1.011,0.309c-0.364,0.071-0.775,0.106-1.229,0.106
	c-0.66,0-1.279-0.094-1.851-0.279c-0.568-0.188-1.067-0.488-1.491-0.91c-0.424-0.418-0.762-0.973-1.011-1.661
	c-0.251-0.688-0.375-1.526-0.375-2.52c0-1.705,0.408-3.023,1.218-3.951c0.812-0.931,1.893-1.394,3.243-1.394
	c0.7,0,1.326,0.125,1.877,0.373c0.551,0.245,1.014,0.588,1.391,1.03c0.38,0.439,0.67,0.971,0.867,1.591
	c0.202,0.618,0.301,1.296,0.301,2.043v0.927H30.64z M35.273,91.75c-0.036-0.197-0.107-0.419-0.217-0.651
	c-0.166-0.396-0.425-0.72-0.783-0.958c-0.36-0.241-0.784-0.363-1.279-0.363c-0.499,0-0.928,0.122-1.293,0.363
	c-0.366,0.238-0.629,0.562-0.795,0.958c-0.11,0.232-0.178,0.454-0.205,0.651c-0.029,0.2-0.047,0.458-0.061,0.774h4.705
	C35.331,92.208,35.307,91.95,35.273,91.75"/>
<path fill="#FFFFFF" d="M45.83,98.614v-0.95c-0.383,0.384-0.784,0.66-1.196,0.822c-0.412,0.17-0.943,0.253-1.589,0.253
	c-0.662,0-1.216-0.081-1.663-0.24c-0.448-0.157-0.832-0.396-1.145-0.711c-0.553-0.578-0.826-1.331-0.826-2.248
	c0-0.883,0.298-1.605,0.897-2.171c0.597-0.563,1.502-0.845,2.716-0.845h2.766v-0.742c0-0.661-0.178-1.154-0.526-1.479
	c-0.353-0.32-0.939-0.482-1.767-0.482c-0.577,0-1.032,0.076-1.362,0.225c-0.331,0.153-0.641,0.417-0.931,0.786l-1.382-1.301
	c0.497-0.576,1.031-0.974,1.6-1.186c0.572-0.214,1.292-0.32,2.161-0.32c2.875,0,4.313,1.193,4.313,3.592v6.998H45.83z
	 M45.791,93.988h-2.456c-0.621,0-1.089,0.133-1.406,0.393c-0.315,0.26-0.476,0.633-0.476,1.116c0,0.481,0.156,0.85,0.465,1.104
	c0.311,0.255,0.795,0.382,1.454,0.382c0.402,0,0.758-0.032,1.077-0.094c0.315-0.061,0.61-0.229,0.885-0.505
	c0.306-0.302,0.457-0.817,0.457-1.547V93.988z"/>
<path fill="#FFFFFF" d="M54.254,98.614c-0.495,0-0.923-0.083-1.281-0.25c-0.358-0.162-0.652-0.383-0.886-0.65
	c-0.236-0.265-0.409-0.577-0.526-0.926c-0.118-0.354-0.177-0.713-0.177-1.086v-5.759h-1.198v-1.609h1.198v-3.18h2.107v3.18h2.021
	v1.609h-2.021v5.657c0,0.383,0.089,0.686,0.278,0.897c0.185,0.21,0.479,0.32,0.877,0.32h0.867v1.796H54.254z"/>
<path fill="#FFFFFF" d="M58.134,83.852h2.23v2.231h-2.23V83.852z M58.197,88.149h2.106v10.463h-2.106V88.149z"/>
<polygon fill="#FFFFFF" points="67.695,98.614 65.98,98.614 62.14,88.149 64.369,88.149 66.847,95.517 69.302,88.149 71.533,88.149 
	"/>
<path fill="#FFFFFF" d="M74.733,93.988c0,0.908,0.226,1.628,0.682,2.149c0.451,0.522,1.113,0.786,1.979,0.786
	c0.591,0,1.07-0.087,1.433-0.26c0.365-0.173,0.735-0.447,1.106-0.816l1.343,1.259c-0.278,0.276-0.548,0.512-0.816,0.712
	c-0.27,0.198-0.556,0.37-0.866,0.506c-0.31,0.14-0.648,0.238-1.013,0.309c-0.363,0.071-0.773,0.106-1.228,0.106
	c-0.66,0-1.28-0.094-1.851-0.279c-0.568-0.188-1.067-0.488-1.491-0.91c-0.424-0.418-0.762-0.973-1.011-1.661
	c-0.251-0.688-0.375-1.526-0.375-2.52c0-1.705,0.405-3.023,1.216-3.951c0.812-0.931,1.895-1.394,3.243-1.394
	c0.703,0,1.328,0.125,1.879,0.373c0.55,0.245,1.014,0.588,1.391,1.03c0.38,0.439,0.67,0.971,0.867,1.591
	c0.202,0.618,0.302,1.296,0.302,2.043v0.927H74.733z M79.368,91.75c-0.038-0.197-0.109-0.419-0.217-0.651
	c-0.165-0.396-0.426-0.72-0.784-0.958c-0.36-0.241-0.785-0.363-1.281-0.363c-0.499,0-0.926,0.122-1.291,0.363
	c-0.367,0.238-0.629,0.562-0.795,0.958c-0.11,0.232-0.178,0.454-0.205,0.651c-0.029,0.2-0.048,0.458-0.062,0.774h4.705
	C79.425,92.208,79.401,91.95,79.368,91.75"/>
<path fill="#FFFFFF" d="M120.396,98.614v-6.378c0-0.813-0.205-1.405-0.611-1.774c-0.405-0.374-0.904-0.561-1.496-0.561
	c-0.291,0-0.563,0.046-0.825,0.134c-0.263,0.092-0.494,0.226-0.693,0.416c-0.199,0.185-0.356,0.419-0.473,0.7
	c-0.117,0.283-0.177,0.611-0.177,0.98v6.482h-2.106v-6.378c0-0.813-0.202-1.405-0.609-1.774c-0.405-0.374-0.904-0.561-1.496-0.561
	c-0.594,0-1.103,0.189-1.527,0.569c-0.427,0.375-0.64,0.967-0.64,1.766v6.378h-2.106V88.149h2.064v1.054
	c0.358-0.389,0.78-0.683,1.268-0.88c0.487-0.2,0.994-0.301,1.519-0.301c1.321,0,2.312,0.51,2.971,1.529
	c0.841-1.02,1.932-1.529,3.284-1.529c0.536,0,1.033,0.085,1.485,0.249c0.455,0.166,0.84,0.398,1.155,0.7
	c0.4,0.4,0.685,0.843,0.856,1.331c0.173,0.491,0.26,1.03,0.26,1.622v6.689H120.396z"/>
<path fill="#FFFFFF" d="M127.312,93.988c0,0.908,0.226,1.628,0.682,2.149c0.452,0.522,1.113,0.786,1.978,0.786
	c0.594,0,1.072-0.087,1.435-0.26c0.364-0.173,0.732-0.447,1.105-0.816l1.343,1.259c-0.278,0.276-0.548,0.512-0.815,0.712
	c-0.27,0.198-0.557,0.37-0.867,0.506c-0.31,0.14-0.647,0.238-1.013,0.309c-0.362,0.071-0.773,0.106-1.228,0.106
	c-0.66,0-1.279-0.094-1.851-0.279c-0.568-0.188-1.067-0.488-1.491-0.91c-0.424-0.418-0.762-0.973-1.011-1.661
	c-0.251-0.688-0.375-1.526-0.375-2.52c0-1.705,0.405-3.023,1.216-3.951c0.813-0.931,1.895-1.394,3.243-1.394
	c0.702,0,1.328,0.125,1.879,0.373c0.549,0.245,1.014,0.588,1.391,1.03c0.38,0.439,0.67,0.971,0.867,1.591
	c0.202,0.618,0.302,1.296,0.302,2.043v0.927H127.312z M131.945,91.75c-0.037-0.197-0.108-0.419-0.219-0.651
	c-0.165-0.396-0.424-0.72-0.782-0.958c-0.36-0.241-0.786-0.363-1.281-0.363c-0.499,0-0.924,0.122-1.291,0.363
	c-0.366,0.238-0.629,0.562-0.795,0.958c-0.11,0.232-0.178,0.454-0.205,0.651c-0.029,0.2-0.047,0.458-0.061,0.774h4.705
	C132.003,92.208,131.979,91.95,131.945,91.75"/>
<path fill="#FFFFFF" d="M142.874,98.614v-1.116c-0.397,0.483-0.813,0.81-1.247,0.981c-0.435,0.174-0.94,0.26-1.517,0.26
	c-0.522,0-1.007-0.083-1.455-0.253c-0.446-0.162-0.816-0.389-1.104-0.678c-0.262-0.263-0.474-0.564-0.629-0.907
	c-0.16-0.345-0.28-0.715-0.363-1.106c-0.081-0.392-0.134-0.794-0.153-1.207c-0.022-0.412-0.034-0.817-0.034-1.219
	c0-0.397,0.012-0.806,0.034-1.218c0.019-0.411,0.072-0.812,0.153-1.196c0.083-0.388,0.204-0.748,0.363-1.095
	c0.156-0.346,0.368-0.645,0.629-0.906c0.288-0.29,0.653-0.515,1.092-0.683c0.442-0.164,0.922-0.247,1.447-0.247
	c0.564,0,1.067,0.083,1.506,0.247c0.441,0.168,0.853,0.475,1.24,0.93v-5.285h2.105v14.698H142.874z M142.763,92.04
	c-0.049-0.422-0.149-0.788-0.298-1.106c-0.153-0.314-0.374-0.567-0.662-0.751c-0.288-0.189-0.668-0.279-1.137-0.279
	c-0.481,0-0.863,0.09-1.145,0.279c-0.282,0.184-0.502,0.437-0.66,0.751c-0.159,0.318-0.261,0.685-0.31,1.106
	c-0.049,0.419-0.073,0.861-0.073,1.329c0,0.471,0.024,0.913,0.073,1.332c0.049,0.422,0.151,0.791,0.31,1.114
	c0.158,0.325,0.378,0.578,0.66,0.766c0.281,0.185,0.663,0.277,1.145,0.277c0.468,0,0.849-0.093,1.137-0.277
	c0.288-0.188,0.509-0.44,0.662-0.766c0.149-0.323,0.249-0.692,0.298-1.114c0.046-0.419,0.073-0.861,0.073-1.332
	C142.836,92.901,142.809,92.459,142.763,92.04"/>
<path fill="#FFFFFF" d="M148.221,83.852h2.229v2.231h-2.229V83.852z M148.282,88.149h2.108v10.463h-2.108V88.149z"/>
<path fill="#FFFFFF" d="M159.364,98.614v-0.95c-0.381,0.384-0.783,0.66-1.193,0.822c-0.413,0.17-0.941,0.253-1.592,0.253
	c-0.657,0-1.213-0.081-1.658-0.24c-0.447-0.157-0.833-0.396-1.146-0.711c-0.552-0.578-0.826-1.331-0.826-2.248
	c0-0.883,0.301-1.605,0.899-2.171c0.595-0.563,1.503-0.845,2.712-0.845h2.77v-0.742c0-0.661-0.18-1.154-0.528-1.479
	c-0.352-0.32-0.942-0.482-1.767-0.482c-0.577,0-1.033,0.076-1.36,0.225c-0.33,0.153-0.643,0.417-0.932,0.786l-1.382-1.301
	c0.497-0.576,1.028-0.974,1.596-1.186c0.573-0.214,1.293-0.32,2.162-0.32c2.876,0,4.313,1.193,4.313,3.592v6.998H159.364z
	 M159.329,93.988h-2.459c-0.621,0-1.088,0.133-1.403,0.393c-0.316,0.26-0.477,0.633-0.477,1.116c0,0.481,0.156,0.85,0.467,1.104
	c0.306,0.255,0.792,0.382,1.454,0.382c0.397,0,0.757-0.032,1.075-0.094c0.313-0.061,0.609-0.229,0.883-0.505
	c0.306-0.302,0.46-0.817,0.46-1.547V93.988z"/>
<path fill="#FFFFFF" d="M195.074,98.552c-0.495,0-0.919-0.083-1.278-0.249c-0.359-0.163-0.653-0.384-0.885-0.652
	c-0.238-0.264-0.412-0.576-0.53-0.926c-0.116-0.353-0.176-0.713-0.176-1.086v-5.758h-1.196v-1.609h1.196v-3.181h2.106v3.181h2.023
	v1.609h-2.023v5.657c0,0.382,0.095,0.685,0.28,0.895c0.185,0.212,0.476,0.323,0.879,0.323h0.864v1.796H195.074z"/>
<path fill="#FFFFFF" d="M200.483,93.926c0,0.907,0.228,1.627,0.684,2.149c0.451,0.522,1.112,0.785,1.981,0.785
	c0.589,0,1.068-0.087,1.432-0.26c0.366-0.173,0.732-0.445,1.107-0.815l1.341,1.259c-0.275,0.276-0.548,0.512-0.814,0.712
	c-0.269,0.198-0.559,0.37-0.869,0.506c-0.311,0.139-0.645,0.239-1.011,0.309c-0.363,0.071-0.773,0.106-1.228,0.106
	c-0.659,0-1.278-0.093-1.85-0.28c-0.573-0.188-1.07-0.488-1.491-0.91c-0.425-0.417-0.762-0.973-1.012-1.66
	c-0.253-0.689-0.377-1.527-0.377-2.519c0-1.707,0.409-3.024,1.22-3.952c0.811-0.932,1.891-1.395,3.241-1.395
	c0.7,0,1.328,0.125,1.879,0.373c0.552,0.246,1.015,0.589,1.39,1.031c0.383,0.439,0.671,0.971,0.869,1.591
	c0.201,0.617,0.301,1.296,0.301,2.042v0.928H200.483z M205.119,91.687c-0.037-0.196-0.107-0.417-0.217-0.65
	c-0.166-0.397-0.426-0.72-0.785-0.958c-0.358-0.242-0.784-0.363-1.279-0.363c-0.497,0-0.927,0.121-1.292,0.363
	c-0.366,0.238-0.63,0.561-0.796,0.958c-0.108,0.233-0.175,0.454-0.203,0.65c-0.028,0.201-0.05,0.458-0.063,0.776h4.709
	C205.177,92.145,205.153,91.888,205.119,91.687"/>
<path fill="#FFFFFF" d="M216.067,98.324c-0.537,0.234-1.166,0.353-1.896,0.353c-0.595,0-1.168-0.099-1.727-0.289
	c-0.555-0.196-1.05-0.503-1.485-0.932c-0.433-0.426-0.786-0.98-1.053-1.661c-0.269-0.683-0.401-1.51-0.401-2.489
	c0-0.976,0.133-1.805,0.401-2.486c0.267-0.679,0.62-1.23,1.053-1.653c0.436-0.417,0.931-0.725,1.485-0.915
	c0.559-0.193,1.132-0.29,1.727-0.29c0.73,0,1.359,0.113,1.896,0.341c0.538,0.226,1.052,0.604,1.549,1.123l-1.443,1.406
	c-0.331-0.36-0.646-0.614-0.938-0.764c-0.297-0.151-0.654-0.228-1.064-0.228c-0.825,0-1.476,0.311-1.942,0.926
	c-0.233,0.29-0.396,0.633-0.484,1.025c-0.092,0.392-0.132,0.896-0.132,1.515c0,0.62,0.04,1.131,0.132,1.527
	c0.089,0.401,0.251,0.747,0.484,1.032c0.467,0.62,1.117,0.933,1.942,0.933c0.41,0,0.768-0.077,1.064-0.228
	c0.291-0.154,0.606-0.408,0.938-0.764l1.443,1.381C217.119,97.71,216.605,98.092,216.067,98.324"/>
<path fill="#FFFFFF" d="M226.391,98.552v-6.42c0-0.799-0.202-1.382-0.609-1.744c-0.405-0.366-0.904-0.55-1.498-0.55
	c-0.588,0-1.09,0.188-1.506,0.561c-0.412,0.369-0.619,0.947-0.619,1.733v6.42h-2.104V83.853h2.104v5.287
	c0.357-0.401,0.768-0.698,1.229-0.891c0.462-0.191,0.951-0.29,1.475-0.29c0.581,0,1.096,0.097,1.549,0.279
	c0.453,0.186,0.838,0.447,1.148,0.786c0.308,0.338,0.538,0.741,0.7,1.216c0.157,0.474,0.238,0.996,0.238,1.56v6.752H226.391z"/>
<path fill="#FFFFFF" d="M238.117,98.552v-6.377c0-0.815-0.202-1.407-0.612-1.776c-0.401-0.373-0.9-0.561-1.494-0.561
	c-0.592,0-1.101,0.19-1.526,0.57c-0.426,0.375-0.639,0.967-0.639,1.767v6.377h-2.106V88.086h2.064v1.054
	c0.356-0.401,0.782-0.698,1.269-0.891c0.488-0.191,0.994-0.29,1.519-0.29c0.536,0,1.021,0.085,1.453,0.249
	c0.437,0.167,0.81,0.399,1.124,0.701c0.399,0.4,0.676,0.843,0.829,1.331c0.15,0.49,0.227,1.029,0.227,1.622v6.689H238.117z"/>
<path fill="#FFFFFF" d="M251.452,95.649c-0.166,0.668-0.497,1.264-0.993,1.786c-0.342,0.358-0.771,0.655-1.286,0.889
	c-0.519,0.232-1.135,0.353-1.85,0.353c-0.716,0-1.327-0.12-1.838-0.353c-0.509-0.233-0.938-0.53-1.279-0.889
	c-0.495-0.522-0.826-1.118-0.992-1.786c-0.166-0.666-0.246-1.447-0.246-2.344c0-0.877,0.08-1.652,0.246-2.32
	c0.166-0.669,0.497-1.264,0.992-1.788c0.341-0.354,0.771-0.651,1.279-0.883c0.511-0.235,1.122-0.354,1.838-0.354
	c0.715,0,1.331,0.118,1.85,0.354c0.516,0.231,0.944,0.528,1.286,0.883c0.496,0.524,0.827,1.119,0.993,1.788
	c0.165,0.668,0.248,1.443,0.248,2.32C251.7,94.202,251.617,94.983,251.452,95.649 M249.468,91.678
	c-0.08-0.509-0.281-0.923-0.596-1.239c-0.401-0.399-0.918-0.599-1.549-0.599c-0.62,0-1.129,0.199-1.527,0.599
	c-0.317,0.316-0.516,0.73-0.599,1.239c-0.085,0.508-0.126,1.052-0.126,1.628c0,0.58,0.041,1.122,0.126,1.632
	c0.083,0.509,0.281,0.921,0.599,1.237c0.412,0.415,0.921,0.622,1.527,0.622c0.617,0,1.134-0.207,1.549-0.622
	c0.314-0.316,0.516-0.729,0.596-1.237c0.085-0.51,0.123-1.052,0.123-1.632C249.591,92.729,249.553,92.186,249.468,91.678"/>
<path fill="#FFFFFF" d="M257.356,98.552c-0.495,0-0.928-0.08-1.291-0.24c-0.366-0.155-0.664-0.369-0.901-0.629
	c-0.233-0.262-0.402-0.564-0.515-0.917c-0.107-0.353-0.163-0.72-0.163-1.105V83.853h2.106v11.686c0,0.397,0.078,0.7,0.247,0.907
	c0.164,0.205,0.46,0.311,0.886,0.311h0.932v1.796H257.356z"/>
<path fill="#FFFFFF" d="M268.543,95.649c-0.164,0.668-0.496,1.264-0.991,1.786c-0.345,0.358-0.773,0.655-1.289,0.889
	c-0.518,0.232-1.133,0.353-1.849,0.353c-0.714,0-1.328-0.12-1.837-0.353c-0.509-0.233-0.935-0.53-1.281-0.889
	c-0.495-0.522-0.822-1.118-0.991-1.786c-0.161-0.666-0.246-1.447-0.246-2.344c0-0.877,0.085-1.652,0.246-2.32
	c0.169-0.669,0.496-1.264,0.991-1.788c0.347-0.354,0.772-0.651,1.281-0.883c0.509-0.235,1.123-0.354,1.837-0.354
	c0.716,0,1.331,0.118,1.849,0.354c0.516,0.231,0.944,0.528,1.289,0.883c0.495,0.524,0.827,1.119,0.991,1.788
	c0.166,0.668,0.249,1.443,0.249,2.32C268.792,94.202,268.709,94.983,268.543,95.649 M266.563,91.678
	c-0.085-0.509-0.284-0.923-0.602-1.239c-0.396-0.399-0.912-0.599-1.548-0.599c-0.617,0-1.128,0.199-1.527,0.599
	c-0.316,0.316-0.515,0.73-0.596,1.239c-0.084,0.508-0.127,1.052-0.127,1.628c0,0.58,0.043,1.122,0.127,1.632
	c0.081,0.509,0.279,0.921,0.596,1.237c0.414,0.415,0.925,0.622,1.527,0.622c0.62,0,1.138-0.207,1.548-0.622
	c0.317-0.316,0.517-0.729,0.602-1.237c0.083-0.51,0.12-1.052,0.12-1.632C266.684,92.729,266.646,92.186,266.563,91.678"/>
<path fill="#FFFFFF" d="M279.317,100.265c-0.205,0.536-0.502,0.999-0.885,1.393c-0.388,0.392-0.855,0.697-1.405,0.918
	c-0.551,0.219-1.175,0.33-1.875,0.33c-0.8,0-1.481-0.104-2.033-0.309c-0.559-0.207-1.115-0.566-1.665-1.075l1.342-1.34
	c0.329,0.314,0.657,0.55,0.993,0.702c0.33,0.149,0.756,0.228,1.278,0.228c0.439,0,0.816-0.074,1.126-0.218
	c0.306-0.145,0.562-0.337,0.765-0.585c0.198-0.247,0.342-0.53,0.433-0.845c0.091-0.316,0.133-0.652,0.133-1.006v-1.34
	c-0.385,0.447-0.799,0.76-1.238,0.93c-0.44,0.172-0.928,0.255-1.466,0.255c-0.522,0-0.997-0.083-1.427-0.246
	c-0.424-0.165-0.783-0.394-1.07-0.681c-0.508-0.509-0.833-1.122-0.973-1.838c-0.138-0.716-0.207-1.521-0.207-2.418
	c0-0.893,0.069-1.697,0.207-2.416c0.14-0.713,0.465-1.325,0.973-1.835c0.604-0.604,1.444-0.91,2.519-0.91
	c0.563,0,1.064,0.089,1.497,0.26c0.432,0.173,0.85,0.499,1.246,0.98v-1.113h2.045v10.402
	C279.629,99.137,279.526,99.726,279.317,100.265 M277.464,91.922c-0.043-0.395-0.14-0.746-0.29-1.056
	c-0.152-0.313-0.369-0.56-0.651-0.747c-0.283-0.186-0.656-0.281-1.123-0.281c-0.484,0-0.866,0.096-1.149,0.281
	c-0.28,0.188-0.494,0.435-0.636,0.747c-0.146,0.31-0.242,0.661-0.29,1.056c-0.048,0.391-0.074,0.795-0.074,1.211
	c0,0.415,0.026,0.816,0.074,1.209c0.048,0.394,0.144,0.746,0.29,1.055c0.142,0.312,0.355,0.563,0.636,0.748
	c0.283,0.188,0.665,0.278,1.149,0.278c0.467,0,0.84-0.09,1.123-0.278c0.282-0.185,0.499-0.437,0.651-0.748
	c0.15-0.309,0.247-0.661,0.29-1.055c0.035-0.393,0.06-0.794,0.06-1.209C277.523,92.717,277.499,92.313,277.464,91.922"/>
<path fill="#FFFFFF" d="M286.258,100.636c-0.195,0.552-0.451,0.984-0.766,1.301c-0.287,0.29-0.618,0.488-0.993,0.601
	c-0.37,0.106-0.755,0.163-1.154,0.163h-0.846v-1.879h0.536c0.438,0,0.764-0.08,0.971-0.236c0.203-0.163,0.387-0.453,0.535-0.881
	l0.58-1.631l-3.656-9.987h2.229l2.502,7.369l2.434-7.369h2.253L286.258,100.636z"/>
<rect x="93.881" y="86.019" fill="#FFFFFF" width="0.448" height="14.722"/>
<rect x="177.201" y="86.019" fill="#FFFFFF" width="0.447" height="14.722"/>
</svg>
